<svg width="166" height="40" viewBox="0 0 166 40" fill="none" xmlns="http://www.w3.org/2000/svg">
<g clip-path="url(#clip0_951_385)">
<path d="M57.1733 0.43206C57.115 0.676041 55.04 9.3823 52.5629 19.79C50.0794 30.1977 48.0498 38.7435 48.0498 38.782C48.0498 38.8269 50.0794 38.8462 54.1127 38.8462H60.1691L60.2339 38.6022C60.2729 38.4738 62.3154 29.9024 64.7795 19.5524C67.2436 9.20253 69.2991 0.573311 69.351 0.367855L69.4353 0.00188446H63.3529H57.2706L57.1733 0.43206Z" fill="black"/>
<path d="M71.6076 0.173347C71.5816 0.276077 69.5066 9.00802 66.9842 19.5827L62.4062 38.8122L68.4691 38.8315C71.8021 38.8379 74.5385 38.8379 74.545 38.825C74.558 38.8186 75.1416 36.3788 75.8484 33.4189L77.1323 28.0257L77.1712 29.3419C77.223 30.9278 77.3592 31.7817 77.7937 33.0979C78.5913 35.5377 80.3745 37.6051 82.6764 38.748C83.7593 39.2873 85.0562 39.6918 86.3725 39.9037C86.8394 39.9743 87.5202 40 89.1673 40C91.5924 40 91.9815 39.9551 93.5766 39.5249C98.0184 38.3178 101.773 35.5827 103.264 32.4751C103.426 32.1413 103.556 31.8202 103.556 31.7753C103.556 31.7047 102.415 31.4864 98.842 30.87L94.1343 30.061L93.6415 30.549C92.6234 31.5698 91.4498 32.122 90.1334 32.2119C89.1348 32.2761 88.2919 32 87.7148 31.4221C87.0404 30.748 86.7551 29.6308 86.9626 28.4623L87.0339 28.0578L89.9324 28.0514C91.5211 28.0449 95.509 28.0193 98.7836 28L104.743 27.9615L104.892 27.5185C105.249 26.4783 105.437 25.13 105.437 23.6212V22.7287H107.084C107.991 22.7287 108.75 22.748 108.763 22.7737C108.783 22.8058 107.933 26.3949 106.889 30.7544C105.845 35.114 104.989 38.7223 104.983 38.7608C104.983 38.825 106.234 38.8443 111.046 38.8443H117.108L117.141 38.703C117.16 38.6196 118.023 35.0177 119.06 30.6966C120.091 26.3756 120.954 22.8122 120.973 22.7801C120.993 22.7544 121.609 22.7287 122.335 22.7287H123.671L123.625 22.9021C123.606 23.0048 122.75 26.6196 121.719 30.947L119.851 38.8122L125.914 38.8315C129.247 38.8379 131.984 38.8379 131.997 38.8315C132.003 38.8186 132.872 35.2231 133.929 30.8315C134.979 26.4398 135.861 22.825 135.881 22.7929C135.907 22.7544 136.581 22.7287 137.547 22.7287C139.065 22.7287 139.168 22.7352 139.123 22.8379C138.65 24.0385 138.163 25.8042 137.943 27.1268C137.787 28.077 137.787 30.183 137.949 31.1075C138.267 32.9438 138.786 34.3114 139.681 35.6404C140.212 36.4238 141.386 37.5923 142.19 38.1316C143.37 38.9213 144.881 39.5249 146.45 39.8395C147.215 39.9936 147.332 40 149.809 40C152.124 40 152.429 39.9872 153.006 39.8716C154.608 39.5441 156.015 39.069 157.539 38.3307C160.041 37.1236 161.903 35.6276 163.206 33.7849C163.524 33.3355 164.127 32.1926 164.211 31.878C164.25 31.7496 164.159 31.7303 162.324 31.4093C161.261 31.2231 159.127 30.8571 157.584 30.5875L154.77 30.0995L154.42 30.4912C152.993 32.0514 150.665 32.6998 149.096 31.9743C148.389 31.6469 147.838 30.9599 147.656 30.1701C147.566 29.7978 147.566 28.7897 147.656 28.3788L147.728 28.0578H156.566H165.398L165.605 27.3644C165.936 26.2215 166.001 25.6501 166.001 23.7496C166.001 22.5104 165.975 21.8812 165.903 21.4703C165.151 17.1557 161.89 13.9326 157.156 12.8411C155.055 12.3595 152.533 12.3724 150.341 12.886C148.895 13.2199 147.267 13.8812 145.99 14.6453C144.764 15.3772 143.286 16.5907 142.423 17.5795C142.177 17.862 141.97 18.0867 141.963 18.0867C141.963 18.0803 142.164 17.2199 142.423 16.1798L142.89 14.2857L140.368 14.2664C138.014 14.2536 137.852 14.2472 137.884 14.138C137.949 13.9069 140.387 3.71107 140.387 3.65329C140.387 3.62119 137.949 3.5955 134.331 3.5955C129.545 3.5955 128.268 3.61477 128.249 3.67255C128.236 3.71749 127.652 6.11878 126.958 9.0016L125.7 14.2536H124.326H122.951L122.983 14.0738C123.003 13.9775 123.58 11.5891 124.267 8.76404L125.512 3.62761L119.449 3.60834C116.116 3.60192 113.38 3.60192 113.373 3.61477C113.36 3.62119 112.796 5.9711 112.115 8.82825C111.435 11.6918 110.864 14.0803 110.845 14.138C110.812 14.2472 110.663 14.2536 108.873 14.2536H106.934L106.837 14.5875C106.785 14.7737 106.39 16.199 105.955 17.7528C105.527 19.3066 105.158 20.6228 105.138 20.6742C105.119 20.7255 105.028 20.5265 104.944 20.2247C103.705 16.0128 99.9378 13.13 94.867 12.5201C93.5896 12.366 91.4757 12.4687 90.114 12.7448C86.0807 13.573 82.6116 15.9615 80.1864 19.5698C79.6741 20.3467 78.7923 22.0032 78.494 22.7801C78.3902 23.0305 78.3059 23.236 78.293 23.2295C78.2865 23.2167 79.4991 18.0803 80.997 11.8138C82.4884 5.54735 83.7269 0.321026 83.7528 0.205456L83.7917 -3.8147e-06H77.7223H71.653L71.6076 0.173347ZM93.5702 20.3531C94.4455 20.61 95.0162 21.2969 95.1199 22.2279C95.1523 22.4847 95.1588 22.7929 95.1394 22.9085L95.1134 23.114H92.0788C88.9792 23.114 88.4475 23.0883 88.4475 22.9534C88.4475 22.9149 88.5383 22.6902 88.655 22.4655C88.9533 21.8684 89.7509 21.0979 90.4252 20.7576C91.56 20.1798 92.5391 20.0578 93.5702 20.3531ZM153.849 20.2953C154.42 20.3981 154.86 20.6356 155.23 21.0273C155.639 21.4767 155.781 21.8748 155.788 22.6003V23.1461L152.435 23.1653C149.77 23.1782 149.076 23.1653 149.076 23.1011C149.076 22.9278 149.459 22.2279 149.744 21.8876C150.698 20.7319 152.474 20.0449 153.849 20.2953Z" fill="black"/>
<path d="M20.7506 2.48368C19.136 2.63778 18.105 2.80471 16.9573 3.08721C10.22 4.76939 4.73422 9.26378 2.02375 15.344C0.72039 18.2654 0.0460153 21.3793 0.0395309 24.5254C0.0330466 26.1177 0.091406 26.7084 0.370234 28.0246C0.98625 30.9524 2.60734 33.6811 4.87687 35.6073C7.35391 37.7004 10.4016 38.9652 14.169 39.466C15.2065 39.6009 18.3125 39.6201 19.4538 39.4981C23.3379 39.0808 26.5412 38.1819 29.6926 36.6281C30.6782 36.1402 32.1048 35.3248 32.3058 35.1322C32.3382 35.1001 35.0357 23.9026 36.3455 18.3424L36.4298 17.9765H27.3388H18.2477L17.262 22.0663C16.7173 24.32 16.2764 26.1819 16.2764 26.2076C16.2764 26.2397 17.8002 26.259 19.6548 26.259H23.0396L23.0007 26.4965C22.9423 26.8368 22.6181 27.4532 22.2939 27.8448C21.211 29.1354 19.0647 29.9508 17.2685 29.7389C14.9406 29.4692 13.4363 27.9604 13.0018 25.4628C12.7813 24.1915 12.9305 21.9829 13.326 20.6474C14.4738 16.7437 18.0661 13.5848 21.5936 13.3729C23.4676 13.2638 25.0563 14.214 25.7112 15.8448C25.7955 16.0439 25.8538 16.1081 25.9316 16.0888C25.99 16.0696 28.6227 15.4147 31.787 14.6314L37.5322 13.2124L37.383 12.6538C35.8268 6.97164 31.0024 3.22204 24.3689 2.53505C23.5195 2.45158 21.412 2.41948 20.7506 2.48368Z" fill="black"/>
<path d="M42.052 3.73572C41.7083 5.17392 40.0159 12.5511 40.0353 12.564C40.0677 12.5961 52.8744 9.43074 52.9327 9.37938C52.9587 9.35369 53.257 8.09527 53.5942 6.5736C53.9378 5.05835 54.2296 3.76782 54.2491 3.70361C54.2815 3.60089 53.9638 3.59446 48.1862 3.59446H42.0844L42.052 3.73572Z" fill="black"/>
<path d="M39.5552 14.136C39.5552 14.1488 38.2323 19.7026 36.6113 26.4827L33.6738 38.8102L39.7367 38.8294C43.0697 38.8358 45.8061 38.8358 45.8191 38.8294C45.845 38.8037 51.6809 14.2837 51.6809 14.2002C51.6809 14.1424 50.1766 14.1231 45.618 14.1231C42.2851 14.1231 39.5552 14.1296 39.5552 14.136Z" fill="black"/>
</g>
<defs>
<clipPath id="clip0_951_385">
<rect width="166" height="40" fill="white"/>
</clipPath>
</defs>
</svg>
