<svg width="52" height="16" viewBox="0 0 52 16" fill="none" xmlns="http://www.w3.org/2000/svg">
<path d="M48 1H48.5V0.5H48V1ZM47.6464 15.3536C47.8417 15.5488 48.1583 15.5488 48.3536 15.3536L51.5355 12.1716C51.7308 11.9763 51.7308 11.6597 51.5355 11.4645C51.3403 11.2692 51.0237 11.2692 50.8284 11.4645L48 14.2929L45.1716 11.4645C44.9763 11.2692 44.6597 11.2692 44.4645 11.4645C44.2692 11.6597 44.2692 11.9763 44.4645 12.1716L47.6464 15.3536ZM0 1.5H48V0.5H0V1.5ZM47.5 1V15H48.5V1H47.5Z" fill="#ECFB5C" fill-opacity="0.8"/>
</svg>
