<svg width="20" height="20" viewBox="0 0 20 20" fill="none" xmlns="http://www.w3.org/2000/svg">
<path fill-rule="evenodd" clip-rule="evenodd" d="M5.34884 10C5.34884 7.43123 7.43123 5.34884 10 5.34884C11.2336 5.34884 12.4166 5.83887 13.2889 6.71113C14.1611 7.58339 14.6512 8.76644 14.6512 10C14.6512 12.5688 12.5688 14.6512 10 14.6512C7.43123 14.6512 5.34884 12.5688 5.34884 10ZM6.99202 11.2459C7.49596 12.4626 8.68314 13.2558 10 13.2558C11.7981 13.2558 13.2558 11.7981 13.2558 10C13.2558 8.68315 12.4626 7.49596 11.2459 6.99202C10.0293 6.48808 8.62895 6.76664 7.69779 7.69779C6.76663 8.62895 6.48808 10.0293 6.99202 11.2459Z" fill="#EA7024"/>
<path d="M10 4.18605C10.3832 4.18104 10.6927 3.87159 10.6977 3.48837V0.697674C10.6977 0.312359 10.3853 0 10 0C9.61469 0 9.30233 0.312359 9.30233 0.697674V3.48837C9.30734 3.87159 9.61678 4.18104 10 4.18605Z" fill="#EA7024"/>
<path d="M10 15.814C9.61678 15.819 9.30734 16.1284 9.30233 16.5116V19.3023C9.30233 19.6876 9.61469 20 10 20C10.3853 20 10.6977 19.6876 10.6977 19.3023V16.5116C10.6927 16.1284 10.3832 15.819 10 15.814Z" fill="#EA7024"/>
<path d="M4.90233 5.88837C5.17471 6.16042 5.61598 6.16042 5.88837 5.88837C6.16042 5.61598 6.16042 5.17471 5.88837 4.90233L3.91628 2.93023C3.74235 2.74358 3.48041 2.66674 3.23322 2.72987C2.98603 2.793 2.793 2.98603 2.72987 3.23322C2.66674 3.48041 2.74358 3.74235 2.93023 3.91628L4.90233 5.88837Z" fill="#EA7024"/>
<path d="M15.0977 14.1116C14.8228 13.8555 14.3944 13.863 14.1287 14.1287C13.863 14.3944 13.8555 14.8228 14.1116 15.0977L16.0837 17.0698C16.2138 17.2015 16.3916 17.2753 16.5767 17.2744C16.7621 17.2764 16.9403 17.2024 17.0698 17.0698C17.3418 16.7974 17.3418 16.3561 17.0698 16.0837L15.0977 14.1116Z" fill="#EA7024"/>
<path d="M4.18605 10C4.18104 9.61678 3.87159 9.30734 3.48837 9.30233H0.697674C0.312359 9.30233 0 9.61469 0 10C0 10.3853 0.312359 10.6977 0.697674 10.6977H3.48837C3.87159 10.6927 4.18104 10.3832 4.18605 10Z" fill="#EA7024"/>
<path d="M19.3023 9.30233H16.5116C16.1263 9.30233 15.814 9.61469 15.814 10C15.814 10.3853 16.1263 10.6977 16.5116 10.6977H19.3023C19.6876 10.6977 20 10.3853 20 10C20 9.61469 19.6876 9.30233 19.3023 9.30233Z" fill="#EA7024"/>
<path d="M4.90232 14.1116L2.93023 16.0837C2.65818 16.3561 2.65818 16.7974 2.93023 17.0698C3.05975 17.2024 3.23787 17.2764 3.42325 17.2744C3.60843 17.2753 3.78615 17.2015 3.91628 17.0698L5.88837 15.0977C6.14452 14.8228 6.13696 14.3944 5.87128 14.1287C5.60559 13.863 5.17722 13.8555 4.90232 14.1116Z" fill="#EA7024"/>
<path d="M14.6512 6.09302C14.8363 6.0939 15.0141 6.02013 15.1442 5.88837L17.0698 3.91628C17.2564 3.74235 17.3333 3.48041 17.2701 3.23322C17.207 2.98603 17.014 2.793 16.7668 2.72987C16.5196 2.66674 16.2576 2.74358 16.0837 2.93023L14.1116 4.90233C13.8396 5.17471 13.8396 5.61598 14.1116 5.88837C14.2528 6.03231 14.45 6.10712 14.6512 6.09302Z" fill="#EA7024"/>
</svg>
