<svg width="130" height="40" viewBox="0 0 130 40" fill="none" xmlns="http://www.w3.org/2000/svg">
<g clip-path="url(#clip0_951_2810)">
<path d="M19.0334 0.0417557C16.0389 0.224075 13.5582 0.870487 11.0499 2.12463C6.28199 4.51137 2.68531 8.67159 1.00575 13.7379C-0.171048 17.2793 -0.30917 21.2241 0.613482 24.8926C2.04442 30.5777 5.9505 35.3843 11.2433 37.9534C13.2986 38.9534 15.3096 39.539 17.735 39.8484C18.6024 39.9589 110.387 39.9534 111.326 39.8484C115.868 39.318 120.039 37.3125 123.232 34.1191C126.536 30.8152 128.586 26.423 129.006 21.771C129.138 20.2407 129.05 18.1025 128.785 16.5335C127.951 11.6716 125.21 7.15225 121.265 4.14673C118.354 1.92574 115.127 0.616341 111.354 0.130154C110.613 0.036232 108.569 0.0307083 64.945 0.0251808C39.8455 0.0251808 19.1881 0.0307083 19.0334 0.0417557ZM110.989 4.77104C114.486 5.31247 117.282 6.64949 119.658 8.92573C122.238 11.3953 123.774 14.4064 124.321 18.0418C124.42 18.7158 124.42 21.4009 124.321 22.0749C123.707 26.1633 121.752 29.5998 118.602 32.1136C116.426 33.8484 113.951 34.8926 110.939 35.3456C110.343 35.434 107.591 35.4451 65.1936 35.4616C34.4477 35.4727 19.7903 35.4616 19.1715 35.4174C16.9781 35.2848 15.0776 34.771 13.1494 33.8097C6.58586 30.5224 3.27094 23.097 5.19359 16.0141C6.54166 11.0694 10.2323 7.15225 15.1383 5.46165C16.2102 5.097 17.6743 4.79314 18.8124 4.70474C19.1494 4.68264 39.8787 4.66054 64.8897 4.66607C107.939 4.67159 110.392 4.67712 110.989 4.77104Z" fill="black"/>
<path d="M111.221 10.8085C110.431 10.9742 109.724 11.5156 109.536 12.0902C109.321 12.7366 109.497 13.4825 109.973 13.919C110.525 14.4272 111.072 14.6151 111.989 14.604C113.138 14.5985 113.901 14.2062 114.321 13.4107C114.426 13.2173 114.448 13.0902 114.448 12.6814C114.448 12.2339 114.431 12.1565 114.282 11.8858C113.785 10.9852 112.497 10.5267 111.221 10.8085Z" fill="black"/>
<path d="M13.9775 12.3189V13.7995L14.2206 14.0426C14.3698 14.1973 14.4914 14.3796 14.5356 14.5343C14.646 14.899 14.646 23.9487 14.5356 24.3133C14.4914 24.468 14.3698 24.6504 14.2206 24.8051L13.9775 25.0481V26.562V28.0813L18.1378 28.0537C22.6074 28.0316 22.8781 28.015 24.088 27.7167C25.1212 27.4625 25.9665 26.9874 26.3809 26.4294C26.8394 25.8051 27.1985 24.8051 27.3532 23.678C27.3864 23.4294 27.4251 21.9211 27.4416 20.2249C27.4803 16.1476 27.3974 14.8327 27.0162 13.7056C26.414 11.9156 25.1212 11.1421 22.3201 10.8879C21.961 10.8603 20.0107 10.8327 17.8339 10.8327H13.9775V12.3189ZM21.5356 14.7498C21.7179 14.8437 21.8063 14.9377 21.8947 15.131C22.0162 15.3907 22.0162 15.4238 22.0328 19.2526C22.0494 23.4957 22.0383 23.6117 21.7234 23.9487C21.4914 24.1918 21.2483 24.2691 20.5963 24.3023L19.9996 24.3299V19.4515V14.5785L20.6516 14.6006C21.182 14.6227 21.3422 14.6448 21.5356 14.7498Z" fill="black"/>
<path d="M41.7129 12.3276V13.8193L41.9339 14.0182C42.3372 14.3829 42.3262 14.1895 42.3096 19.5707C42.293 24.8856 42.3206 24.4989 41.9118 24.858L41.7129 25.0293V26.5541V28.0735H47.956H54.1991V23.8746V19.6757H51.851H49.5029V21.2061C49.4974 23.4547 49.4256 23.8635 48.9615 24.1343C48.7516 24.2558 48.6245 24.289 48.2212 24.3055L47.7295 24.3276L47.746 19.532C47.7626 15.858 47.7847 14.6812 47.8344 14.5265C47.9284 14.2503 48.1549 13.9851 48.3814 13.8967L48.5637 13.8193V12.3276V10.8359H45.1383H41.7129V12.3276Z" fill="black"/>
<path d="M95.1377 12.2558L95.1432 13.6812L95.3145 13.7917C95.4139 13.8525 95.541 13.9906 95.6073 14.0956C95.7178 14.289 95.7178 14.3497 95.7178 19.3442C95.7178 24.0956 95.7123 24.416 95.6184 24.6591C95.5631 24.8028 95.4305 24.9961 95.3255 25.0845L95.1377 25.2503V26.6646V28.0735H98.0935H101.049V26.6481V25.2282L100.861 25.0459C100.513 24.7088 100.497 24.5707 100.497 21.5155V18.8028L100.696 18.7365C100.806 18.6978 101.038 18.6702 101.215 18.6646C101.663 18.6646 101.922 18.8028 102.099 19.1564L102.237 19.4271L102.27 22.8525C102.303 25.9409 102.353 27.079 102.48 27.8193L102.519 28.0459L105.044 28.0624L107.569 28.0735V26.6646V25.2503L107.353 25.0459C107.033 24.7365 107.016 24.5541 107.016 21.4381C107.016 19.9298 106.989 18.5541 106.961 18.2945C106.79 16.9022 106.32 16.068 105.469 15.6536C104.867 15.3608 104.491 15.289 103.563 15.289C102.464 15.2834 101.806 15.4326 100.928 15.8691L100.497 16.0845V13.4602V10.8359H97.8173H95.1377V12.2558Z" fill="black"/>
<path d="M29.6133 13.098V13.761H34.7238H39.8343V13.098V12.435H34.7238H29.6133V13.098Z" fill="black"/>
<path d="M33.5641 15.2293C33.4757 15.2404 33.1995 15.279 32.9564 15.3122C31.3265 15.5221 30.3431 16.1022 29.8404 17.1354C29.3984 18.0525 29.3818 18.2183 29.3542 21.3564C29.321 24.8426 29.3818 25.4392 29.868 26.3564C30.2381 27.0636 30.7299 27.4945 31.4978 27.7928C32.984 28.3619 35.7354 28.4227 37.8625 27.931C38.7354 27.7265 39.752 27.2846 40.3044 26.8647L40.5807 26.6547L40.5973 25.0967L40.6083 23.5387H38.2381H35.868L35.8459 24.1022C35.8127 25.0249 35.5862 25.3343 34.9453 25.3343C34.531 25.3343 34.3431 25.2238 34.1774 24.8868C34.0835 24.7044 34.0669 24.5221 34.0448 23.6602L34.0227 22.6547H37.321H40.6249L40.5917 20.8978C40.5696 19.6879 40.5365 18.9917 40.4757 18.6492C40.1829 16.9475 39.4647 16.0415 38.0393 15.5829C37.1442 15.3011 36.6801 15.2404 35.1387 15.2238C34.3652 15.2127 33.658 15.2183 33.5641 15.2293ZM35.4149 18.2072C35.7078 18.3619 35.8238 18.6713 35.8459 19.4061L35.868 20.058H34.9453H34.0172L34.0448 19.4613C34.0724 18.7542 34.1995 18.4116 34.4868 18.2348C34.7078 18.1022 35.1829 18.0857 35.4149 18.2072Z" fill="black"/>
<path d="M59.9723 15.2287C59.8839 15.2398 59.6077 15.2784 59.3646 15.3116C57.5193 15.5491 56.4806 16.2563 56.0552 17.5602C55.7734 18.4276 55.7734 18.4442 55.7734 21.7701C55.7734 24.8641 55.7734 24.8972 55.906 25.4055C56.3922 27.3502 57.5193 28.0519 60.4475 28.2398C61.4475 28.3005 62.8397 28.2398 63.6629 28.0961C65.3812 27.7922 66.2431 27.1458 66.6795 25.8254C66.9502 25.0077 66.9723 24.6265 66.9502 21.411L66.9281 18.4828L66.7845 17.9414C66.3535 16.3723 65.4806 15.6652 63.5359 15.3281C63.0331 15.2453 60.4088 15.1679 59.9723 15.2287ZM61.9337 18.3171C62.2596 18.632 62.2707 18.748 62.2541 21.8641L62.2375 24.6707L62.0994 24.9193C61.7569 25.5326 60.895 25.516 60.5801 24.8917C60.4751 24.6817 60.4696 24.5436 60.453 21.9083C60.4309 18.9359 60.4475 18.6983 60.7016 18.3944C60.895 18.1624 61.0165 18.1237 61.4198 18.1403C61.7182 18.1569 61.79 18.179 61.9337 18.3171Z" fill="black"/>
<path d="M75.8295 15.3111C75.0671 15.4326 74.2494 15.7309 73.6362 16.1177L73.4262 16.2503V15.8359V15.4216H70.8571H68.2881V16.8414L68.2936 18.2669L68.4649 18.3774C68.5588 18.4381 68.6914 18.5873 68.7522 18.7088C68.8627 18.9243 68.8682 19.0017 68.8682 21.637C68.8682 24.1232 68.8571 24.3663 68.7687 24.637C68.7025 24.8249 68.5975 24.9796 68.4759 25.079L68.2881 25.2282V26.6481V28.0735H71.2439H74.1997V26.6425V25.2116L74.0616 25.1232C73.8682 24.9961 73.7135 24.6591 73.6472 24.2227C73.6196 24.0182 73.592 22.7144 73.592 21.3276V18.8083L73.8516 18.7309C74.1886 18.637 74.6417 18.6481 74.8406 18.753C75.0505 18.8635 75.1665 18.9961 75.2881 19.2613C75.3765 19.4602 75.3875 19.8193 75.4207 23.1011C75.4428 25.0901 75.4759 26.8083 75.4925 26.9133C75.5091 27.0182 75.5533 27.3221 75.5864 27.5873L75.6472 28.0735H78.1831H80.719V26.6591V25.2503L80.5533 25.1066C80.1831 24.7972 80.1997 24.9409 80.161 21.4713C80.1389 19.4492 80.1058 18.2006 80.0616 17.974C79.7135 16.0845 78.8295 15.3442 76.8516 15.2834C76.4704 15.2724 76.0118 15.2834 75.8295 15.3111Z" fill="black"/>
<path d="M84.8629 15.2902C84.4265 15.3399 83.9403 15.4835 83.5811 15.6769C82.7579 16.1078 82.3325 16.8868 82.1557 18.2902C82.0839 18.8592 82.0839 23.9089 82.1613 24.5775C82.3657 26.5001 82.9789 27.4007 84.327 27.7764C84.4872 27.815 84.9016 27.8703 85.2497 27.8868C86.2441 27.9366 87.1999 27.7708 88.1668 27.3786L88.6198 27.1962V27.8647C88.6198 29.1023 88.4651 29.5996 88.0342 29.7929C87.4044 30.0692 86.9071 29.6603 86.8132 28.7819L86.78 28.4559H84.5811H82.3767V30.025V31.5885L82.8905 31.815C84.4651 32.5001 85.8463 32.804 87.6585 32.8592C89.2828 32.9089 90.2331 32.7432 91.1889 32.257C92.0729 31.7985 92.885 30.7874 93.1613 29.8095C93.2828 29.373 93.2828 29.3178 93.316 24.2018C93.3436 20.0747 93.3657 18.9973 93.4209 18.8426C93.5093 18.6217 93.7303 18.362 93.8795 18.3123C93.9734 18.2846 93.9789 18.1907 93.9789 16.8482V15.4172H91.4099H88.8408V15.804C88.8408 16.0305 88.8187 16.1907 88.7856 16.1907C88.7524 16.1907 88.6253 16.1244 88.4983 16.0415C87.5646 15.4559 86.0894 15.152 84.8629 15.2902ZM88.3767 18.7377L88.6198 18.7984V21.5498V24.3012L88.3602 24.4062C88.0066 24.5388 87.537 24.5333 87.2939 24.3896C86.8629 24.141 86.7966 23.7708 86.7966 21.6051C86.7966 19.4228 86.874 19.0471 87.3491 18.7984C87.6198 18.6603 87.9845 18.6382 88.3767 18.7377Z" fill="black"/>
<path d="M109.171 16.8414L109.176 18.2669L109.348 18.3774C109.447 18.4381 109.574 18.5762 109.641 18.6812C109.745 18.8691 109.751 18.9519 109.751 21.637C109.751 24.7254 109.751 24.7475 109.359 25.0845L109.171 25.2503V26.6646V28.0735H112.127H115.083V26.6591V25.2392L114.895 25.0293C114.79 24.9188 114.674 24.7254 114.629 24.6094C114.58 24.4492 114.558 23.3829 114.541 19.9077L114.524 15.4216H111.85H109.171V16.8414Z" fill="black"/>
</g>
<defs>
<clipPath id="clip0_951_2810">
<rect width="129.116" height="40" fill="white"/>
</clipPath>
</defs>
</svg>
