<svg width="200" height="34" viewBox="0 0 200 34" fill="none" xmlns="http://www.w3.org/2000/svg">
<g clip-path="url(#clip0_951_186)">
<g clip-path="url(#clip1_951_186)">
<path d="M127.421 1.90208C121.453 2.30833 116.773 6.65989 115.445 13.0271C114.5 17.5427 115.171 22.3474 117.226 25.8396C119.664 29.988 123.687 32.2927 128.484 32.2849C131.679 32.2771 134.476 31.2927 136.796 29.363C140.828 26.0036 142.718 19.8708 141.64 13.6599C141.218 11.2536 140.296 9.00364 138.961 7.12864C138.312 6.22239 136.765 4.69895 135.882 4.09739C134.109 2.89426 131.851 2.07395 129.882 1.93333C128.617 1.84739 128.304 1.83958 127.421 1.90208ZM130.867 5.59739C133.703 6.33958 135.859 8.46458 137.062 11.6833C137.679 13.3318 137.968 15.0271 137.968 17.0271C137.968 18.5896 137.828 19.7927 137.492 21.0896C136.476 25.0505 134.109 27.699 130.796 28.5974C130.093 28.7849 129.921 28.8005 128.476 28.8005C127.023 28.8005 126.859 28.7849 126.132 28.5818C122.343 27.5427 119.781 24.1677 119.109 19.324C118.953 18.199 118.945 15.9568 119.101 14.863C119.812 9.90208 122.367 6.56614 126.25 5.55051C127.492 5.2302 129.539 5.24583 130.867 5.59739Z" fill="black"/>
<path d="M157.523 1.89599C154.273 2.12255 151.172 3.60693 149.031 5.97412C147.547 7.61474 146.359 9.83349 145.742 12.1538C144.922 15.1851 144.93 19.0054 145.75 22.0522C147.07 26.9351 150.383 30.4976 154.789 31.771C156.125 32.1616 156.789 32.2397 158.594 32.2476C160.039 32.2476 160.398 32.2241 161.156 32.0679C166.961 30.896 170.898 26.3647 171.844 19.7476C172.016 18.5991 172.031 15.8179 171.883 14.6929C171.414 11.0601 170.07 8.04443 167.922 5.80224C165.18 2.94287 161.633 1.61474 157.523 1.89599ZM160.969 5.59912C162.445 5.98193 163.891 6.84912 164.961 8.00537C168.305 11.6226 169.086 18.4663 166.727 23.4976C165.484 26.146 163.445 27.9194 160.898 28.5835C159.383 28.9741 157.203 28.9194 155.758 28.4429C153.508 27.7085 151.711 26.0835 150.523 23.7241C149.844 22.3647 149.328 20.5679 149.133 18.8569C149.016 17.8101 149.078 15.3804 149.25 14.4351C149.977 10.4194 151.813 7.58349 154.57 6.20849C155.656 5.66943 156.57 5.41943 157.773 5.3413C158.875 5.27099 160.063 5.37255 160.969 5.59912Z" fill="black"/>
<path d="M0.078125 17.0896V31.4255H2.14844H4.21875V23.8474V16.2693L11.1484 23.8474L18.0781 31.4255H20.6094H23.1406L22.3281 30.5505C21.8828 30.0662 18.8672 26.7693 15.625 23.2224C12.3906 19.6755 9.60156 16.6287 9.42969 16.449L9.125 16.1287L14.7266 10.3552C17.8125 7.18335 20.7422 4.17553 21.2422 3.66772L22.1484 2.75366H19.7266H17.3047L10.7813 9.4646L4.25781 16.1755L4.23438 9.4646L4.21875 2.75366H2.14844H0.078125V17.0896Z" fill="black"/>
<path d="M25.7812 17.0896V31.4255H36.25H46.7188V29.7458V28.0662H38.3203H29.9219V23.1833V18.3005H37.5H45.0781V16.6208V14.9412H37.5H29.9219V10.5271V6.11303L37.9922 6.09741L46.0547 6.07397L46.0781 4.40991L46.0938 2.75366H35.9375H25.7812V17.0896Z" fill="black"/>
<path d="M51.0938 17.0896V31.4255H53.125H55.1563V19.8865C55.1563 12.3552 55.1797 8.37085 55.2344 8.42554C55.2734 8.4646 58.8047 13.6521 63.0703 19.9412L70.8281 31.3865L73.1875 31.4099L75.5469 31.4255V17.0896V2.75366H73.5156H71.4844V14.2771C71.4844 20.613 71.4609 25.8005 71.4297 25.7927C71.3906 25.7927 67.8594 20.6052 63.5703 14.2693L55.7734 2.75366H53.4297H51.0938V17.0896Z" fill="black"/>
<path d="M78.125 2.80975C78.125 2.91912 90.9609 33.3019 91.0078 33.3019C91.0312 33.3019 92.3359 30.4894 93.9062 27.0441C95.4688 23.6066 96.7656 20.7785 96.7969 20.7629C96.8203 20.7473 98.1172 23.5598 99.6797 26.9973C101.242 30.4426 102.539 33.2863 102.57 33.3176C102.594 33.341 105.422 26.716 108.852 18.591C112.281 10.4582 115.188 3.57537 115.312 3.2785L115.539 2.75506L113.461 2.77069L111.383 2.79412L106.922 13.6691C104.461 19.6535 102.438 24.5598 102.422 24.5754C102.398 24.5988 101.133 21.9973 99.6094 18.8098C98.0859 15.6144 96.8203 13.0129 96.7969 13.0285C96.7734 13.0441 95.5078 15.6535 93.9844 18.8332C92.4609 22.0129 91.1953 24.5988 91.1797 24.5832C91.1562 24.5598 89.1328 19.6535 86.6797 13.6691L82.2188 2.79412L80.1719 2.77069C79.0469 2.76287 78.125 2.7785 78.125 2.80975Z" fill="black"/>
<path d="M91.9688 2.82397C92.1016 3.1521 96.7657 12.8318 96.797 12.8318C96.8282 12.8318 101.508 3.13647 101.625 2.82397C101.641 2.78491 99.5548 2.75366 96.797 2.75366C94.1251 2.75366 91.9532 2.78491 91.9688 2.82397Z" fill="black"/>
<path d="M175.703 17.0896V31.4255H181.672C188.719 31.4255 189.242 31.3865 191.211 30.7927C194.812 29.6833 197.586 26.8943 198.93 23.0193C199.547 21.238 199.844 19.3318 199.844 17.1052C199.844 14.6833 199.516 12.6912 198.789 10.7615C197.258 6.67553 194.117 3.90991 190.062 3.06616C188.641 2.7771 188.125 2.75366 181.859 2.75366H175.703V17.0896ZM188.977 6.37085C190.438 6.79272 191.539 7.42553 192.625 8.47241C194.484 10.2615 195.531 12.7146 195.797 15.9412C196.109 19.7458 194.969 23.3474 192.742 25.574C191.43 26.8865 189.992 27.6287 188.141 27.949C187.617 28.0427 186.664 28.0662 183.625 28.0662H179.766V17.0818V6.10522L184.008 6.12866L188.242 6.15991L188.977 6.37085Z" fill="black"/>
</g>
</g>
<defs>
<clipPath id="clip0_951_186">
<rect width="200" height="34" fill="white"/>
</clipPath>
<clipPath id="clip1_951_186">
<rect width="200" height="31.7188" fill="white" transform="translate(0 1.73901)"/>
</clipPath>
</defs>
</svg>
