<svg width="230" height="40" viewBox="0 0 230 40" fill="none" xmlns="http://www.w3.org/2000/svg">
<g clip-path="url(#clip0_951_2407)">
<path d="M92.6897 2.25295C91.0797 2.73595 89.9297 4.29995 89.9297 6.02495C89.9297 8.14095 91.3557 9.61295 93.5867 9.77395C96.7837 10.0039 98.8077 7.28995 97.5657 4.46095C96.7837 2.68995 94.6217 1.70095 92.6897 2.25295Z" fill="black"/>
<path d="M102.81 20.1697V37.8797H105.915H109.02V36.4307L109.043 35.0047L109.779 35.8327C111.872 38.2247 115.506 39.1217 119.347 38.2247C123.487 37.2357 126.73 33.9007 127.765 29.5537C128.524 26.3337 127.995 21.8487 126.569 19.1807C125.626 17.4557 123.786 15.6847 122.107 14.8797C120.129 13.9597 118.519 13.6607 116.058 13.7757C113.505 13.9137 111.78 14.5347 110.308 15.8227L109.25 16.7657V9.61272V2.45972H106.03H102.81V20.1697ZM117.921 19.8477C120.06 20.7447 121.233 22.6307 121.394 25.3677C121.578 28.7717 120.474 31.0947 118.082 32.2677C115.621 33.4637 112.24 32.8427 110.745 30.8877C108.675 28.1737 108.629 23.9417 110.653 21.4807C112.263 19.5257 115.437 18.8127 117.921 19.8477Z" fill="black"/>
<path d="M159.62 20.1699V37.8799H162.955H166.29V20.1699V2.45988H162.955H159.62V20.1699Z" fill="black"/>
<path d="M172.04 20.1699V37.8799H175.375H178.71V20.1699V2.45988H175.375H172.04V20.1699Z" fill="black"/>
<path d="M56.9944 9.98088L56.9254 14.3049L54.6944 14.3739L52.4404 14.4429V17.1799V19.9399H54.7404H57.0404V28.9099V37.8799H60.2604H63.4804V28.9099V19.9399H65.7804H68.0804V17.1799V14.4429L65.8494 14.3739L63.5954 14.3049L63.5264 9.98088L63.4804 5.67988H60.2604H57.0404L56.9944 9.98088Z" fill="black"/>
<path d="M213.44 10.0499V14.4199H211.255H209.07V17.1799V19.9399H211.255H213.44V28.9099V37.8799H216.775H220.11V28.9099V19.9399H222.295H224.48V17.1799V14.4199H222.295H220.11V10.0499V5.67988H216.775H213.44V10.0499Z" fill="black"/>
<path d="M192.395 13.7298C187.772 14.6728 184.138 18.0768 182.965 22.6308C182.505 24.3558 182.528 27.8978 182.988 29.6918C184.069 33.8778 187.657 37.3048 192.05 38.3628C194.925 39.0528 198.697 38.5928 201.342 37.2588C202.837 36.4998 204.93 34.4988 205.689 33.0728L206.31 31.9688L203.55 31.2098L200.79 30.4738L200.33 31.0028C200.1 31.3018 199.893 31.6238 199.87 31.6928C199.87 31.7618 199.318 32.1298 198.674 32.4978C197.616 33.0728 197.202 33.1418 195.615 33.1648C192.142 33.1648 189.934 31.5318 189.198 28.3808L189.06 27.7598H197.892H206.724L206.862 27.2308C207.299 25.6208 206.632 21.6188 205.597 19.5028C204.148 16.5818 201.48 14.6038 197.892 13.8448C196.19 13.4768 193.89 13.4308 192.395 13.7298ZM197.57 19.2728C199.203 20.0088 199.962 20.9058 200.353 22.6308L200.514 23.3898H194.902H189.29L189.428 22.7458C189.819 21.1818 190.831 20.0318 192.51 19.2728C193.913 18.6288 196.167 18.6288 197.57 19.2728Z" fill="black"/>
<path d="M10.994 14.0519C9.568 14.4659 8.004 15.3859 7.291 16.2599C6.969 16.6279 6.647 16.9499 6.578 16.9499C6.509 16.9499 6.44 16.3749 6.44 15.6849V14.4199H3.22H0V26.1499V37.8799H3.335H6.67V30.6809C6.67 26.1269 6.762 23.1599 6.923 22.5849C7.314 21.2049 8.809 19.8249 10.235 19.5259C12.443 19.0659 14.444 19.8479 15.41 21.5729L15.985 22.5849L16.054 30.2209L16.123 37.8799H19.343H22.563L22.494 28.9789C22.425 20.6529 22.402 19.9859 21.965 18.9739C20.953 16.6049 19.366 15.0179 17.204 14.2589C15.87 13.7759 12.374 13.6609 10.994 14.0519Z" fill="black"/>
<path d="M26.4958 23.0906C26.5648 31.5316 26.5878 31.8306 27.0938 33.0956C27.7148 34.6136 29.3018 36.4996 30.6818 37.3046C32.1538 38.1556 34.5458 38.6386 36.5698 38.4776C38.8468 38.3166 40.2268 37.8106 41.4688 36.7066C42.0438 36.2236 42.5728 35.8096 42.6418 35.8096C42.7108 35.8096 42.7798 36.2696 42.7798 36.8446V37.8796H45.8848H48.9898V26.1496V14.4195H45.6548H42.3198V21.7796C42.3198 29.6916 42.2508 30.1516 41.1008 31.3936C39.6058 33.0036 36.5698 33.2106 34.6608 31.8536C34.3158 31.6006 33.8098 30.9796 33.5108 30.4506C33.0278 29.5076 33.0048 29.2316 32.9358 21.9405L32.8668 14.4195H29.6468H26.4268L26.4958 23.0906Z" fill="black"/>
<path d="M72.2197 26.1499V37.8799H75.4397H78.6597V32.0609C78.6597 27.5529 78.7287 25.9429 79.0047 24.8849C79.8097 21.8489 81.5577 20.6069 85.2607 20.4459L87.3997 20.3539V17.3639V14.3739L84.9387 14.4659C82.7077 14.5349 82.3167 14.6269 81.2127 15.2249C80.5227 15.6159 79.6717 16.3289 79.3037 16.8119L78.6597 17.7089V16.0759V14.4199H75.4397H72.2197V26.1499Z" fill="black"/>
<path d="M90.6201 26.1499V37.8799H93.9551H97.2901V26.1499V14.4199H93.9551H90.6201V26.1499Z" fill="black"/>
<path d="M131.376 23.2288L131.445 32.0148L132.204 33.5558C133.147 35.4648 134.964 37.1898 136.758 37.8568C140.185 39.1448 144.486 38.5238 146.694 36.4308L147.43 35.7178V36.7988V37.8798H150.65H153.87V26.1498V14.4198H150.535H147.2V21.7798C147.2 29.8068 147.154 30.1748 145.866 31.5088C145.084 32.3138 143.106 32.9118 141.841 32.7278C140.369 32.4978 139.104 31.6698 138.46 30.5198L137.885 29.4848L137.816 21.9408L137.747 14.4198H134.527H131.307L131.376 23.2288Z" fill="black"/>
<path d="M225.745 32.7047C224.434 33.1647 223.79 34.0617 223.79 35.4187C223.79 37.4657 224.94 38.6387 226.941 38.6387C230.621 38.6387 230.989 33.1647 227.355 32.4977C226.987 32.4287 226.251 32.5207 225.745 32.7047ZM228.252 33.2567C230 34.4297 229.954 36.8907 228.16 37.9717C226.412 38.9837 224.25 37.6727 224.25 35.5797C224.25 33.4177 226.527 32.1297 228.252 33.2567Z" fill="black"/>
<path d="M225.86 35.5797C225.86 36.4997 225.952 37.1897 226.09 37.1897C226.228 37.1897 226.32 36.9137 226.32 36.5457L226.343 35.9247L226.849 36.5457C227.47 37.3047 228.091 37.4427 227.7 36.7297C227.516 36.3847 227.539 36.1317 227.838 35.6947C228.183 35.1657 228.183 35.0737 227.838 34.5447C227.562 34.1077 227.263 33.9697 226.665 33.9697H225.86V35.5797ZM227.355 35.1197C227.355 35.3037 227.125 35.4877 226.849 35.5337C226.435 35.6027 226.32 35.4877 226.32 35.1197C226.32 34.7517 226.435 34.6367 226.849 34.7057C227.125 34.7517 227.355 34.9357 227.355 35.1197Z" fill="black"/>
</g>
<defs>
<clipPath id="clip0_951_2407">
<rect width="230" height="36.8" fill="white" transform="translate(0 2)"/>
</clipPath>
</defs>
</svg>
