<svg width="120" height="80" viewBox="0 0 120 80" fill="none" xmlns="http://www.w3.org/2000/svg">
<g clip-path="url(#clip0_951_3011)">
<path d="M89.92 2.08203C88.52 4.6951 88.08 6.10213 88.04 7.66997C87.96 10.6046 90.36 10.7252 91.64 7.91118C92.88 5.09711 92.56 0.393588 91.12 0.393588C90.96 0.393588 90.4 1.15741 89.92 2.08203Z" fill="black"/>
<path d="M65.6006 3.81391C64.7606 4.85914 65.0406 6.38677 66.4006 8.11542C67.1606 9.04004 67.9606 10.4069 68.2406 11.2109C68.8406 12.9797 70.4806 13.4621 71.2006 12.0551C72.1606 10.2863 70.6006 5.18074 68.7206 3.85411C67.6006 3.05009 66.2406 3.05009 65.6006 3.81391Z" fill="black"/>
<path d="M78.8023 11.1727C76.9223 12.1777 74.9623 15.1526 73.9223 18.6501C73.4823 20.2179 73.0423 21.5847 72.9623 21.6651C72.9223 21.7053 72.2423 21.3435 71.5223 20.7807C67.8823 18.0069 63.0023 17.2028 60.4023 19.0119C58.1623 20.4993 57.4023 22.228 57.4023 25.9265C57.4023 28.7807 57.5623 29.4641 58.7623 31.8762C60.4023 35.1325 64.1223 38.831 67.3223 40.3586C71.2023 42.1677 76.4023 43.2129 77.0023 42.2481C77.1223 42.0471 75.9223 41.1626 74.3223 40.3184C70.6823 38.429 65.9223 33.7657 64.1223 30.3486C62.4423 27.1325 61.7223 24.3184 62.4023 23.5144C63.6023 22.0672 65.4823 23.0722 71.3223 28.2179C73.0023 29.7053 74.6823 30.9516 75.0023 30.9516C75.9623 30.9516 76.2823 29.7456 76.5223 25.5244C76.8823 19.1325 78.0023 16.7204 80.4823 16.9616C82.6423 17.1626 83.3623 18.7305 83.5223 23.233C83.6423 26.4893 83.4423 27.8963 82.4823 31.7958C81.8023 34.3687 80.6423 37.7858 79.8423 39.3536C79.0423 40.9616 78.4023 42.4089 78.4023 42.6501C78.4023 43.2933 79.3623 43.0521 80.9223 42.0069C82.0423 41.243 82.8423 40.0772 84.2023 37.2229C86.8423 31.7958 88.0823 26.6099 88.1623 20.9013C88.2023 16.6802 88.1223 16.0772 87.2023 14.2682C85.5223 10.9315 81.8423 9.56464 78.8023 11.1727Z" fill="black"/>
<path d="M46.5216 15.6716C46.0016 15.8726 45.6016 16.1942 45.6016 16.3952C45.6016 16.958 47.2416 18.3248 49.7616 19.8123L52.1216 21.2595L53.6816 20.4555C54.5216 20.0133 55.2016 19.4907 55.2016 19.2495C55.2016 18.365 52.8416 16.5962 50.8016 15.953C48.4816 15.1892 47.8016 15.149 46.5216 15.6716Z" fill="black"/>
<path d="M5.00137 31.9948C4.12137 32.3164 2.72137 33.241 1.92137 34.045L0.401367 35.5325V51.9345C0.401367 67.8943 0.441367 68.3767 1.20137 69.1405C2.20137 70.1455 3.68137 70.7485 5.16137 70.7485C6.24137 70.7485 6.32137 70.6279 6.56137 68.6581C6.68137 67.4923 6.80137 64.0752 6.80137 61.0601V55.5526L9.00137 54.4671C12.3614 52.8189 15.7614 49.442 17.2814 46.2661C20.2014 40.1556 18.0414 34.5274 11.8014 32.1958C9.24137 31.2309 7.28137 31.1505 5.00137 31.9948ZM11.2414 36.9797C12.2014 37.5425 13.2014 39.432 13.2014 40.839C13.2014 42.648 11.6814 45.2611 9.52137 47.2309C8.40137 48.236 7.36137 49.04 7.16137 49.04C6.96137 49.04 6.80137 46.7083 6.80137 43.8541C6.80137 39.2309 6.88137 38.5877 7.64137 37.6229C8.52137 36.4973 9.88137 36.2561 11.2414 36.9797Z" fill="black"/>
<path d="M39.602 33.6432C33.722 34.2864 26.162 36.3769 24.202 37.9447C21.482 40.1156 24.922 40.3568 34.482 38.5879C45.042 36.6583 52.442 36.9799 57.162 39.6332C58.522 40.397 59.002 40.5176 59.282 40.1156C59.762 39.3518 59.682 38.9095 58.802 37.4623C57.802 35.8543 54.722 34.2864 51.322 33.7638C49.122 33.402 42.562 33.3216 39.602 33.6432Z" fill="black"/>
<path d="M93.3602 33.8829C89.6802 34.8477 87.2002 37.0185 87.2002 39.31C87.2002 40.516 87.6402 40.6366 88.8802 39.712C92.6402 37.0587 99.8802 36.6165 109.24 38.5864C117.2 40.2346 120.24 40.1542 118.72 38.305C117.88 37.2597 113.36 35.3703 109.64 34.5261C105.2 33.521 96.2002 33.1592 93.3602 33.8829Z" fill="black"/>
<path d="M34.721 41.4401C34.041 41.8019 34.001 42.8069 34.001 53.2994C34.001 65.7215 34.081 66.1637 36.241 67.8924C36.841 68.3748 37.681 68.7366 38.161 68.7366C38.961 68.7366 39.001 68.5758 39.001 62.1838C39.041 54.7064 39.641 50.6863 41.041 49.1185C41.761 48.2341 42.081 48.1135 42.641 48.4753C43.801 49.1587 44.041 50.8069 44.281 58.8471C44.521 66.1235 44.561 66.5255 45.441 67.4099C45.961 67.9326 46.841 68.3346 47.481 68.3346H48.601V59.1285C48.601 50.6461 48.641 49.8421 49.361 49.0783C50.361 47.9929 51.801 47.9929 52.561 49.1185C53.081 49.8421 53.201 51.3697 53.201 57.3999C53.201 65.3597 53.401 66.2843 55.441 67.8924C56.041 68.3748 56.841 68.7366 57.281 68.7366C58.041 68.7366 58.081 68.4552 57.921 58.7667C57.761 50.5657 57.601 48.5155 57.041 46.9476C56.281 44.8572 54.041 42.6059 52.761 42.6059C51.521 42.6059 48.881 44.0934 48.161 45.219C47.321 46.5054 46.961 46.5054 46.641 45.1788C46.281 43.7717 44.641 42.2039 43.521 42.2039C42.961 42.2039 41.921 42.9677 40.721 44.2542L38.801 46.3044V44.1336C38.801 42.9275 38.601 41.7617 38.321 41.4803C37.721 40.8773 35.681 40.8773 34.721 41.4401Z" fill="black"/>
<path d="M21.3212 42.5674C20.4012 43.0097 19.4812 43.6931 19.2412 44.1353C18.3612 45.7835 18.8812 48.6378 20.0412 48.6378C20.2012 48.6378 21.1612 47.9142 22.1612 47.07C24.6012 44.9393 25.5612 44.6579 26.4812 45.8237C26.8812 46.3061 27.2012 47.3112 27.2012 48.0348C27.2012 49.2408 27.0812 49.3614 25.6012 49.6026C21.6012 50.2458 16.8012 53.5423 15.1612 56.7182C13.4812 60.0951 13.5212 65.9242 15.2412 67.7735C17.3612 70.0649 22.4012 67.8941 26.0412 63.1504L27.0812 61.8237L27.3612 62.869C27.4812 63.4318 27.4012 64.7182 27.2012 65.7634C26.7212 67.9343 27.0012 68.4569 28.6412 68.2559C30.4412 68.0549 31.2012 66.0448 31.6012 60.4569C32.2812 51.2509 31.1212 44.8991 28.3212 42.8489C26.7612 41.7232 23.4412 41.5624 21.3212 42.5674ZM25.7612 54.1855C26.0812 54.7082 23.5212 59.8539 22.2012 61.4217C20.8412 63.07 19.4812 63.07 19.2812 61.4217C19.1212 60.1755 20.7212 56.8388 22.0812 55.5926C23.4412 54.3061 25.3612 53.5825 25.7612 54.1855Z" fill="black"/>
<path d="M83.0018 42.7702C78.9618 44.6194 76.3218 52.0164 76.9218 59.7752C77.5618 68.4184 83.6418 71.4335 89.6018 66.0868C91.3618 64.4385 93.5618 60.539 92.8818 60.137C92.7218 60.0566 92.0018 59.8556 91.2418 59.6948C90.0418 59.4536 89.7618 59.5742 88.2418 61.0616C86.0418 63.2325 84.0018 63.6747 83.0418 62.2275C82.6818 61.7048 82.2818 60.6998 82.1618 59.9762L81.9218 58.6898L86.5218 56.5189C89.1218 55.2727 91.3218 53.9863 91.5618 53.5038C92.6018 51.5742 91.7618 46.3481 90.1218 44.539C88.4818 42.73 85.0018 41.8455 83.0018 42.7702ZM86.8018 47.9159C87.2418 48.3983 87.6018 48.9209 87.6018 49.0817C87.6018 49.2023 87.7218 49.8857 87.8418 50.5692C88.0818 51.7752 88.0018 51.8556 85.4018 53.0214C83.9218 53.7048 82.6018 54.2677 82.4818 54.2677C82.0018 54.2677 82.7218 49.0415 83.3218 48.0767C84.2018 46.7903 85.6818 46.7099 86.8018 47.9159Z" fill="black"/>
<path d="M94.041 42.7676C93.721 43.1696 93.601 44.255 93.761 46.1043C93.881 47.5917 94.081 50.8078 94.201 53.26C94.481 59.1294 94.761 62.3455 95.241 65.5615C95.601 67.8128 95.801 68.2952 96.641 68.6972C98.801 69.662 98.801 69.7023 98.801 62.1043C98.801 56.1143 98.921 54.7877 99.601 52.9786C100.641 50.1646 102.361 48.1143 104.521 47.1093C106.681 46.0641 107.321 44.5364 106.081 43.2902C104.841 42.0842 102.721 42.647 100.361 44.8982L98.401 46.7475V45.0992C98.401 44.1344 98.121 43.2098 97.761 42.848C97.001 42.044 94.641 42.0038 94.041 42.7676Z" fill="black"/>
<path d="M110.122 43.048C107.722 44.2138 107.082 45.4199 107.282 48.1937C107.522 51.1284 108.482 53.0983 110.882 55.3897C111.962 56.435 113.122 57.7616 113.442 58.3646C114.802 60.9777 113.602 63.1083 110.682 63.1083C108.722 63.1083 107.442 62.3445 106.602 60.6561C105.402 58.3646 104.122 59.651 104.642 62.5857C105.042 64.7968 105.802 66.1234 107.442 67.4098C109.562 69.0179 113.442 69.2189 116.002 67.852C118.002 66.7666 119.442 64.8772 119.842 62.9073C120.282 60.5355 119.362 58.445 116.522 55.3495C113.162 51.6912 112.402 50.4048 112.402 48.5556C112.402 47.3897 112.642 46.9073 113.402 46.3847C115.282 45.1385 117.082 46.7465 116.682 49.2792C116.482 50.5254 116.562 50.646 117.402 50.646C117.922 50.646 118.642 50.244 118.962 49.7616C119.802 48.5958 119.762 45.4601 118.962 44.254C117.482 42.1636 113.122 41.5606 110.122 43.048Z" fill="black"/>
<path d="M63.761 43.8129C62.841 44.2551 61.681 45.0993 61.161 45.6622L60.201 46.7074L60.081 58.4059C60.001 64.8782 60.041 71.9938 60.201 74.2853C60.521 78.9084 60.761 79.2702 63.721 79.7928L65.201 80.0742V73.4009C65.201 67.2501 65.241 66.7275 65.921 66.7275C67.321 66.7275 70.801 64.637 72.401 62.828C74.521 60.3757 75.641 57.2802 75.881 52.9787C76.081 49.7627 76.041 49.2802 75.041 47.2702C73.601 44.2953 72.001 43.3305 68.241 43.1295C65.921 42.9687 65.081 43.1295 63.761 43.8129ZM69.761 48.7576C70.441 49.7225 70.601 50.4863 70.601 53.1797C70.601 55.9536 70.441 56.7576 69.601 58.2049C68.761 59.6923 66.681 61.5014 65.841 61.5014C65.521 61.5014 65.521 48.034 65.881 47.6722C66.561 46.9888 68.921 47.6722 69.761 48.7576Z" fill="black"/>
</g>
<defs>
<clipPath id="clip0_951_3011">
<rect width="120" height="80" fill="white"/>
</clipPath>
</defs>
</svg>
