<svg width="230" height="40" viewBox="0 0 230 40" fill="none" xmlns="http://www.w3.org/2000/svg">
<g clip-path="url(#clip0_951_3214)">
<path d="M72.3238 -0.184114C72.0945 -0.0899863 71.709 0.181937 71.4797 0.432943C70.4376 1.5311 70.719 3.19401 72.0528 3.87382C72.9907 4.35492 73.866 4.22941 74.6059 3.50777C75.1478 2.9953 75.3458 2.3887 75.252 1.60431C75.0957 0.265606 73.5951 -0.644292 72.3238 -0.184114Z" fill="black"/>
<path d="M101.825 -0.225188C100.804 0.0990281 100.085 1.20764 100.241 2.21166C100.543 4.08375 102.69 4.81585 104.003 3.48761C105.358 2.128 104.534 -0.110144 102.617 -0.277481C102.346 -0.308857 101.992 -0.277481 101.825 -0.225188Z" fill="black"/>
<path d="M125.292 -0.236436C124.427 0.0459456 123.812 0.778047 123.687 1.66703C123.469 3.25673 125.052 4.56406 126.574 4.05159C127.908 3.60187 128.502 2.01216 127.783 0.798964C127.303 -0.0272646 126.136 -0.50836 125.292 -0.236436Z" fill="black"/>
<path d="M59.902 1.95968L58.6202 2.22114V5.23322V8.24529H57.2134H55.8066V9.44803V10.6508H57.1092H58.4014L58.4431 18.3588C58.4743 24.0169 58.516 26.2027 58.6098 26.5583C58.9224 27.761 59.6936 28.5663 60.9961 29.0684C61.7881 29.3821 63.7576 29.4658 64.8309 29.2357C65.7688 29.037 66.6441 28.6605 66.6441 28.4618C66.6441 28.3153 66.3628 26.9453 66.2794 26.6838C66.2482 26.5897 66.1231 26.6001 65.7896 26.7256C65.4979 26.8407 64.9873 26.893 64.2995 26.9034C62.9761 26.9139 62.3612 26.6629 61.9548 25.9203L61.6943 25.4497L61.6631 18.045L61.6318 10.6508H63.768H65.8939L66.3419 9.5317C66.592 8.91464 66.8213 8.3708 66.8317 8.32896C66.8526 8.28713 65.6959 8.24529 64.2578 8.24529H61.6422V4.95084V1.65638L61.413 1.66684C61.2775 1.6773 60.6002 1.8028 59.902 1.95968Z" fill="black"/>
<path d="M112.787 1.94897L111.453 2.22089V5.23297V8.24504H110.046H108.64V9.44778V10.6401L109.973 10.6714L111.297 10.7028L111.349 18.5468C111.391 23.8179 111.443 26.4953 111.516 26.7045C112.016 28.085 112.839 28.8171 114.381 29.2145C115.403 29.4864 117.372 29.3923 118.487 29.0158C118.956 28.8589 119.383 28.702 119.446 28.6602C119.529 28.6079 119.498 28.3046 119.342 27.5934C119.227 27.0496 119.123 26.5894 119.112 26.5685C119.102 26.558 118.883 26.6208 118.633 26.7149C118.133 26.9032 116.653 26.9659 116.007 26.83C115.799 26.7881 115.444 26.5999 115.236 26.4116C114.496 25.7527 114.527 26.1606 114.496 18.0029L114.465 10.6505L116.622 10.6296L118.769 10.5982L119.165 9.6465C119.373 9.13402 119.592 8.60064 119.623 8.47513L119.696 8.24504H117.091H114.475V4.95059C114.475 1.87576 114.465 1.65613 114.298 1.66659C114.194 1.67705 113.517 1.80255 112.787 1.94897Z" fill="black"/>
<path d="M30.5882 7.78707C29.1918 8.07991 27.4724 9.17807 26.4929 10.3808L26.0448 10.9351L25.9302 10.0357C25.7738 8.82247 25.4091 7.7034 25.1799 7.76616C25.0861 7.79753 24.3775 7.98579 23.6063 8.19496C22.8352 8.40413 22.1996 8.58193 22.1891 8.59238C22.1787 8.60284 22.2933 9.06302 22.4392 9.60687L22.7206 10.6004L22.7519 19.668L22.7831 28.7461H24.3879H25.9927L26.0239 21.6029L26.0552 14.4701L26.3366 13.8635C27.1077 12.2006 29.4836 10.8828 31.0363 11.2489L31.5156 11.3535L32.1513 9.63824C32.5056 8.68651 32.7765 7.89166 32.7453 7.86028C32.6515 7.77662 31.9116 7.61974 31.5782 7.63019C31.4114 7.63019 30.9633 7.7034 30.5882 7.78707Z" fill="black"/>
<path d="M42.1043 7.73084C39.2907 8.13873 37.0607 9.82256 35.8415 12.4686C35.112 14.0792 34.7473 16.0036 34.7473 18.3359C34.7369 20.94 35.1016 22.8435 35.9457 24.6006C37.4046 27.6858 39.9993 29.2755 43.5632 29.2651C48.2108 29.2442 51.3266 26.3471 52.129 21.2852C52.3582 19.7896 52.2644 16.4533 51.9518 14.9996C51.6913 13.7654 51.2641 12.6255 50.7326 11.6946C50.2428 10.858 48.6693 9.2578 47.8669 8.7767C46.2934 7.85634 44.0634 7.44846 42.1043 7.73084ZM44.7095 10.4605C45.9599 10.7743 47.1479 11.7679 47.721 12.9811C48.3879 14.393 48.6172 15.9827 48.6172 19.0157C48.6068 22.7912 47.9815 24.6528 46.3455 25.7824C45.4806 26.3681 44.7407 26.5772 43.5632 26.5772C41.2915 26.5563 39.6658 25.4582 38.9781 23.4501C38.1027 20.8982 37.936 16.5265 38.6134 14.0165C38.8322 13.2321 39.3011 12.228 39.6346 11.8411C40.7288 10.5756 42.8546 9.9899 44.7095 10.4605Z" fill="black"/>
<path d="M1.49414 8.01485C0.233241 8.24494 -0.0376961 8.31815 0.00398662 8.45411C0.0352487 8.53778 0.129035 9.08163 0.2124 9.65685C0.347869 10.5563 0.36871 12.8781 0.36871 25.7003V40.6875L0.608386 40.6352C0.733434 40.6038 1.37952 40.4783 2.03602 40.3528C2.69252 40.2378 3.31776 40.1123 3.42197 40.0809C3.5887 40.0286 3.59912 39.6207 3.59912 33.492V26.9554L4.25562 27.4888C5.61031 28.5869 7.49645 29.2667 9.23671 29.2667C13.1549 29.2667 16.2915 26.1082 16.9897 21.4228C17.1668 20.2514 17.1981 17.1661 17.0418 15.8797C16.4374 10.9537 13.5821 7.91027 9.53891 7.88935C8.93451 7.87889 8.18422 7.94164 7.8716 8.02531C6.49607 8.37045 5.13096 9.14438 4.09931 10.1693C3.77627 10.4935 3.47407 10.755 3.44281 10.755C3.41155 10.755 3.39071 10.3157 3.39071 9.78235C3.39071 8.54824 3.2865 7.72201 3.14061 7.73247C3.07809 7.74293 2.33822 7.86843 1.49414 8.01485ZM10.3309 10.9119C11.1437 11.1524 12.0711 11.8113 12.5088 12.4493C13.9885 14.6561 14.2282 21.1508 12.936 23.9956C11.9982 26.035 9.36175 27.0913 7.03794 26.3383C6.15219 26.0559 5.03717 25.3552 4.20352 24.5499L3.59912 23.9747V18.7977V13.6102L4.01595 13.1291C4.89128 12.1355 6.4127 11.1943 7.61108 10.9014C8.34053 10.7236 9.71606 10.7236 10.3309 10.9119Z" fill="black"/>
<path d="M79.9622 8.06492C79.1077 8.25317 78.4199 8.44143 78.4199 8.50418C78.4199 8.55647 80.056 13.1687 82.0567 18.7536L85.6936 28.8984H87.2879H88.8927L92.7067 18.5967L96.5311 8.29501L94.8533 8.26363C93.9363 8.25317 93.1756 8.25317 93.1548 8.27409C93.0506 8.37868 87.9757 23.3135 87.736 24.2339C87.4025 25.468 87.4546 25.4994 86.9336 23.6168C86.7252 22.8952 85.4851 19.1092 84.1721 15.1977C81.4836 7.23869 81.6503 7.71979 81.5565 7.73025C81.5253 7.7407 80.8063 7.88712 79.9622 8.06492Z" fill="black"/>
<path d="M134.639 7.81807C133.263 8.18412 132.409 9.3764 132.534 10.7569C132.773 13.4971 136.473 14.2187 137.733 11.761C138.192 10.872 138.046 9.53328 137.4 8.74888C136.816 8.04816 135.483 7.58798 134.639 7.81807ZM136.441 8.52925C137.64 9.27181 137.869 11.123 136.9 12.1479C135.785 13.3402 133.815 12.9742 133.19 11.4681C133.096 11.2485 133.023 10.8197 133.023 10.4955C133.023 8.65476 134.899 7.56706 136.441 8.52925Z" fill="black"/>
<path d="M134.378 10.4923C134.378 11.9251 134.388 12.0088 134.586 12.0088C134.753 12.0088 134.784 11.9251 134.816 11.3499C134.836 10.9943 134.899 10.7015 134.951 10.7015C135.014 10.7119 135.243 11.0048 135.472 11.3604C135.774 11.831 135.951 12.0088 136.129 12.0088C136.254 12.0088 136.358 11.9879 136.358 11.946C136.358 11.9147 136.17 11.6114 135.941 11.2662C135.67 10.8793 135.566 10.6492 135.66 10.6492C135.733 10.6492 135.899 10.5446 136.024 10.4086C136.337 10.0739 136.327 9.56148 135.993 9.23726C135.774 9.00717 135.649 8.9758 135.055 8.9758H134.378V10.4923ZM135.639 9.48827C135.847 9.65561 135.868 9.72882 135.785 9.97982C135.691 10.2413 135.618 10.2831 135.232 10.3145L134.795 10.3459V9.82294C134.795 9.30001 134.805 9.28955 135.097 9.28955C135.264 9.28955 135.503 9.38368 135.639 9.48827Z" fill="black"/>
<path d="M73.1576 8.04854C72.5324 8.15312 71.855 8.26817 71.6779 8.29954L71.334 8.3623V18.549V28.7461H73.0013H74.6686V18.2875C74.6686 8.39367 74.6582 7.82891 74.4914 7.83937C74.3872 7.84982 73.7933 7.94395 73.1576 8.04854Z" fill="black"/>
<path d="M102.543 8.04854C101.918 8.15312 101.241 8.26817 101.064 8.29954L100.72 8.3623V18.549V28.7461H102.387H104.054V18.2875C104.054 8.39367 104.044 7.82891 103.877 7.83937C103.773 7.84982 103.179 7.94395 102.543 8.04854Z" fill="black"/>
<path d="M125.99 8.04854C125.364 8.15312 124.687 8.26817 124.51 8.29954L124.166 8.3623V18.549V28.7461H125.833H127.501V18.2875C127.501 8.39367 127.49 7.82891 127.323 7.83937C127.219 7.84982 126.625 7.94395 125.99 8.04854Z" fill="black"/>
</g>
<defs>
<clipPath id="clip0_951_3214">
<rect width="230" height="40" fill="white"/>
</clipPath>
</defs>
</svg>
