<svg width="168" height="42" viewBox="0 0 168 42" fill="none" xmlns="http://www.w3.org/2000/svg">
<path d="M12.4757 1.31209C6.99492 1.93267 2.63775 5.92403 1.45537 11.4113L1.27246 12.2475V21.001V29.7545L1.45537 30.5907C2.01063 33.1841 3.15382 35.2876 5.00251 37.1232C7.00799 39.1221 9.66018 40.3764 12.5541 40.6899C13.449 40.7879 153.78 40.7879 154.675 40.6899C157.569 40.3764 160.214 39.1287 162.226 37.1232C164.075 35.2876 165.218 33.1841 165.774 30.5907L165.957 29.7545V21.001V12.2475L165.774 11.4113C165.218 8.83752 164.075 6.72752 162.259 4.90496C160.234 2.87989 157.588 1.62565 154.675 1.31209C153.898 1.22717 13.2269 1.22717 12.4757 1.31209ZM154.753 2.02413C156.236 2.21357 157.373 2.5598 158.738 3.2457C159.836 3.79443 160.613 4.33663 161.469 5.13359C163.526 7.04762 164.807 9.50383 165.218 12.3259C165.342 13.162 165.342 28.84 165.218 29.6762C164.434 35.0001 160.476 39.0437 155.178 39.9256C154.401 40.0563 12.8284 40.0563 12.0511 39.9256C9.63405 39.5206 7.48486 38.4754 5.76028 36.8684C3.52617 34.7846 2.2262 32.1193 1.95837 29.0686C1.87345 28.0692 1.87345 13.9329 1.95837 12.9334C2.45484 7.24359 6.75322 2.75577 12.4104 2.03066C13.0636 1.94574 154.08 1.94574 154.753 2.02413Z" fill="black"/>
<path d="M15.3963 14.0813C14.3053 14.3426 13.2406 15.1984 12.7506 16.2044C12.2737 17.1777 12.2803 17.0732 12.2803 21.3977C12.2803 23.9715 12.3064 25.3303 12.3521 25.4544C12.4501 25.7157 12.7898 26.0554 13.0968 26.1991C13.6913 26.4735 14.4817 26.2383 14.8345 25.683L15.0239 25.3825V23.8605V22.3319L22.0986 22.3515C28.7356 22.3711 29.1798 22.3776 29.4281 22.4886C30.0878 22.7891 30.1924 23.0374 30.2381 24.4419C30.2773 25.5197 30.2838 25.5328 30.4733 25.8137C30.6954 26.1272 31.2506 26.4539 31.5772 26.4539C32.1652 26.4539 32.7727 26.0227 32.9164 25.5066C33.0079 25.1735 33.0079 23.6841 32.9164 23.1223C32.8184 22.5017 32.5245 21.9464 32.1129 21.5741L31.7602 21.2671L32.0345 20.9535C32.4003 20.5354 32.7074 20.0128 32.9099 19.4772C33.1255 18.8958 33.1842 17.8114 33.0275 17.1516C32.8903 16.5702 32.4853 15.7928 32.0737 15.329C31.6622 14.8718 30.9632 14.4014 30.3557 14.1793L29.8853 14.0095L22.8302 13.9964C16.9183 13.9899 15.7164 14.0029 15.3963 14.0813ZM29.1472 16.5245C29.2778 16.5637 29.526 16.6878 29.6959 16.8054C30.6104 17.4194 30.6104 18.8958 29.6959 19.5098C29.526 19.6274 29.2778 19.7515 29.1472 19.7907C28.9904 19.8299 26.4884 19.856 21.968 19.856H15.0239V18.8762C15.0239 18.0596 15.0435 17.844 15.1546 17.5501C15.3114 17.1255 15.6772 16.7596 16.1083 16.5898C16.4153 16.4722 16.6701 16.4657 22.6669 16.4657C26.7236 16.4591 28.9904 16.4853 29.1472 16.5245Z" fill="black"/>
<path d="M68.8771 15.4738C68.5439 15.5587 68.2042 15.8004 68.0148 16.0879L67.8384 16.3557L67.8058 19.622C67.7731 22.8425 67.7731 22.9013 67.6294 23.1234C67.3419 23.5872 67.3877 23.5806 64.5787 23.5806C62.1943 23.5806 62.0441 23.5741 61.6979 23.4435C60.9466 23.1626 60.3783 22.6138 60.0844 21.8822C59.9406 21.536 59.9341 21.4184 59.9014 19.0079C59.8688 16.715 59.8557 16.4733 59.7447 16.2447C59.5291 15.8135 58.9673 15.4804 58.4447 15.4804C58.0136 15.4804 57.5105 15.7613 57.2754 16.1271L57.0859 16.4276L57.1055 19.2039C57.1317 21.9018 57.1317 21.9932 57.2819 22.4375C57.7653 23.9007 58.7583 25.0635 60.0648 25.6972C61.1295 26.2132 61.7632 26.2786 65.2058 26.2459C68.1193 26.2132 68.1454 26.2067 68.8771 25.769C69.2168 25.5665 69.2756 25.5469 69.367 25.6318C69.5695 25.8148 70.262 26.1153 70.6539 26.1936C70.9413 26.2524 71.8624 26.2655 73.9528 26.2459C76.6834 26.2132 76.8859 26.2067 77.3758 26.0695C79.2507 25.56 80.6878 24.1228 81.2104 22.2415C81.3476 21.745 81.3541 21.5948 81.3541 19.1059C81.3607 16.6823 81.3541 16.4798 81.2431 16.2708C80.8642 15.5849 80.0542 15.304 79.3683 15.6175C79.0024 15.7809 78.8653 15.905 78.6889 16.2316C78.5582 16.4798 78.5517 16.5909 78.519 19.0406L78.4864 21.5882L78.3035 21.9737C77.9638 22.7053 77.4738 23.1691 76.7487 23.4369C76.409 23.561 76.2196 23.5741 73.8744 23.5937C71.4639 23.6133 71.3594 23.6068 71.1504 23.4827C71.0328 23.4108 70.8695 23.2475 70.7911 23.1234C70.6474 22.9013 70.6474 22.8425 70.6147 19.6154L70.5821 16.3426L70.3861 16.0617C70.066 15.611 69.3866 15.3432 68.8771 15.4738Z" fill="black"/>
<path d="M40.011 15.5883C39.1553 15.7124 38.0839 16.1892 37.4176 16.7445C36.8297 17.2279 36.3855 17.8028 36.0327 18.5148C35.582 19.4163 35.5036 19.7821 35.5101 20.9318C35.5101 21.8529 35.5232 21.9509 35.7192 22.5323C36.3071 24.2961 37.6201 25.5568 39.4231 26.0729L39.9457 26.2231H45.0737H50.2017L50.7243 26.0729C52.5273 25.5503 53.7815 24.3614 54.4086 22.578C54.6307 21.9313 54.6373 21.8856 54.6373 20.9318C54.6438 19.7886 54.5654 19.4163 54.1212 18.5148C53.5921 17.4369 52.782 16.6334 51.7042 16.0978C50.5871 15.5491 50.966 15.5817 45.2697 15.5687C42.4868 15.5621 40.1221 15.5752 40.011 15.5883ZM49.5158 18.2274C50.365 18.3646 51.0966 18.9329 51.4951 19.7756C51.6911 20.1806 51.7042 20.2655 51.7042 20.8992C51.7042 21.5328 51.6911 21.6177 51.4951 22.0228C51.2208 22.6107 50.7766 23.068 50.2409 23.3358L49.8097 23.5448H45.0737H40.3376L39.9065 23.3358C39.3643 23.068 38.9266 22.6107 38.6523 22.0228C38.2668 21.1931 38.3518 20.1153 38.8678 19.364C39.2728 18.7761 39.9392 18.3384 40.5793 18.2274C41.0889 18.1425 48.9997 18.1425 49.5158 18.2274Z" fill="black"/>
<path d="M88.1738 15.607C87.612 15.705 87.1156 15.8813 86.5211 16.1818C86.0377 16.4301 85.8221 16.5934 85.3126 17.1095C83.8754 18.5466 83.3986 20.3496 83.9146 22.3485C84.2805 23.7857 85.4236 25.1183 86.8347 25.765C87.8668 26.2353 87.612 26.2157 93.0862 26.2419C96.5158 26.2549 98.0901 26.2419 98.26 26.1896C98.9524 25.9871 99.3574 25.1379 99.0569 24.5369C98.9198 24.2625 98.7173 24.047 98.4756 23.9163C98.2992 23.8183 97.77 23.7987 93.2757 23.7726L88.2783 23.7399L87.7884 23.4982C87.4487 23.3284 87.1809 23.1324 86.9261 22.8646C86.7236 22.649 86.5538 22.4465 86.5538 22.4073C86.5538 22.3616 88.3829 22.3354 92.224 22.3158C97.4238 22.2962 97.9203 22.2897 98.273 22.1787C99.8474 21.7083 100.729 20.5651 100.729 19.0039C100.729 17.4818 99.7951 16.2472 98.2469 15.718C97.8288 15.5743 97.7831 15.5743 93.1516 15.5678C90.5843 15.5613 88.3437 15.5808 88.1738 15.607ZM97.6329 18.1024C97.9007 18.2526 98.162 18.5597 98.2143 18.8014C98.273 19.0692 98.0575 19.533 97.7831 19.729L97.561 19.8858L91.93 19.9054C88.8271 19.9119 86.2925 19.8988 86.2925 19.8727C86.2925 19.84 86.3839 19.6637 86.495 19.4677C86.9326 18.7034 87.7557 18.1351 88.5788 18.0305C88.814 17.9979 90.8979 17.9783 93.2169 17.9848C97.0645 17.9913 97.45 17.9979 97.6329 18.1024Z" fill="black"/>
<path d="M107.328 15.6454C105.473 16.0243 103.938 17.3373 103.337 19.0488C103.049 19.8785 103.017 20.2574 103.017 22.8246C103.017 25.2416 103.017 25.2612 103.167 25.5487C103.578 26.3326 104.65 26.5481 105.329 25.9864C105.826 25.5813 105.826 25.5617 105.826 23.0402C105.826 21.786 105.858 20.6362 105.891 20.4403C106.106 19.3101 106.975 18.4348 108.079 18.2323C108.576 18.1408 114.56 18.1343 115.036 18.2258C115.886 18.3891 116.643 18.9574 117.016 19.7217L117.225 20.1528L117.257 22.7332C117.29 25.5552 117.277 25.4376 117.708 25.8884C118.263 26.4698 119.224 26.4175 119.792 25.7773C120.132 25.3919 120.145 25.2286 120.119 22.5437C120.093 20.2639 120.079 20.0483 119.949 19.5649C119.674 18.585 119.25 17.8338 118.557 17.1348C117.78 16.3509 116.833 15.8414 115.775 15.6389C115.095 15.5082 107.968 15.5148 107.328 15.6454Z" fill="black"/>
<path d="M121.529 15.6722C121.189 15.829 120.882 16.2013 120.791 16.5737C120.66 17.0767 120.895 17.6254 121.385 17.9782C121.601 18.1284 121.601 18.1284 124.377 18.1611C127.428 18.1937 127.356 18.1872 127.624 18.5987C127.728 18.7621 127.741 19.0691 127.774 22.0806C127.813 25.7845 127.787 25.6277 128.303 25.9935C128.93 26.4508 129.74 26.3789 130.269 25.8237C130.648 25.4252 130.648 25.4383 130.648 22.0087C130.648 18.4485 130.635 18.5334 131.131 18.2917C131.393 18.1676 131.523 18.1611 134.006 18.1611C136.919 18.1611 136.867 18.1676 137.272 17.6907C137.559 17.3576 137.664 16.9526 137.566 16.5671C137.475 16.2013 137.161 15.8224 136.828 15.6722C136.573 15.5546 136.22 15.5481 129.178 15.5481C122.136 15.5481 121.783 15.5546 121.529 15.6722Z" fill="black"/>
<path d="M140.481 15.6362C140.233 15.7473 139.893 16.1065 139.801 16.3482C139.703 16.603 139.71 17.008 139.821 17.2628C139.932 17.5437 140.317 17.8703 140.624 17.9552C140.788 18.001 142.636 18.0271 146.033 18.0271C150.913 18.0271 151.207 18.0336 151.462 18.1512C151.893 18.3472 152.272 18.9024 152.272 19.3467C152.272 19.4512 151.9 19.4577 146.543 19.4838C140.2 19.5034 140.533 19.4838 139.645 19.9346C138.345 20.5878 137.678 22.1752 138.064 23.6777C138.39 24.9254 139.507 25.9053 140.899 26.1666C141.343 26.2515 142.14 26.2646 146.21 26.2384C151.403 26.2123 151.325 26.2188 152.383 25.84C153.343 25.4872 154.114 24.8274 154.519 24.0174C154.918 23.2074 154.963 22.8415 154.937 20.6401C154.911 18.8633 154.898 18.6803 154.767 18.2819C154.31 16.9166 153.128 15.9367 151.566 15.6362C150.874 15.5056 140.775 15.5056 140.481 15.6362ZM152.318 22.2144C152.246 22.8023 151.795 23.3837 151.201 23.6516C150.946 23.7692 150.658 23.7757 146.079 23.7757C142.617 23.7757 141.18 23.7561 141.082 23.7038C140.814 23.5666 140.579 23.2923 140.507 23.044C140.396 22.626 140.709 22.1034 141.167 21.927C141.219 21.9074 143.76 21.8878 146.811 21.8878L152.357 21.8813L152.318 22.2144Z" fill="black"/>
</svg>
