<svg width="32" height="32" viewBox="0 0 32 32" fill="none" xmlns="http://www.w3.org/2000/svg">
<path d="M14.9502 2.5624C14.4939 3.1124 14.1064 3.59991 14.0877 3.64366C14.0627 3.72491 15.7252 4.67491 15.7877 4.61241C15.8002 4.59366 15.8064 3.89991 15.8002 3.06866L15.7814 1.55615L14.9502 2.5624Z" fill="#E6EFEF"/>
<path d="M16.375 3.08125C16.375 3.93125 16.3937 4.625 16.4187 4.625C16.4562 4.625 18.0437 3.76875 18.1187 3.7125C18.1312 3.7 16.7187 1.925 16.425 1.59375C16.4 1.5625 16.375 2.23125 16.375 3.08125Z" fill="#E6EFEF"/>
<path d="M13.7875 4.575C13.7437 4.95625 11.75 27.0562 11.75 27.1687C11.75 27.2312 12.1813 27.25 13.7125 27.25H15.6688L15.7125 19.0437C15.7313 14.5375 15.7562 9.59375 15.7625 8.06875L15.7812 5.3L14.8188 4.775C14.2875 4.4875 13.85 4.25 13.8375 4.25C13.8312 4.25 13.8125 4.4 13.7875 4.575Z" fill="#E6EFEF"/>
<path d="M17.3436 4.78125L16.4061 5.3L16.3686 6.0375C16.3436 6.45 16.3061 11.3875 16.2811 17.0125L16.2373 27.25H18.2436C19.3498 27.25 20.2498 27.2312 20.2498 27.2C20.2623 27 18.3561 4.44375 18.3248 4.3625C18.2873 4.275 18.1436 4.3375 17.3436 4.78125Z" fill="#E6EFEF"/>
<path d="M8.9375 28.375V28.9375H16H23.0625V28.375V27.8125H16H8.9375V28.375Z" fill="#E6EFEF"/>
<path d="M7.625 29.9688V30.4375H16H24.375V29.9688V29.5H16H7.625V29.9688Z" fill="#E6EFEF"/>
</svg>
